<svg width="20" height="20" viewBox="0 0 20 20" fill="none" xmlns="http://www.w3.org/2000/svg">
<path d="M8.99968 16.667C8.99968 17.2193 9.44739 17.667 9.99968 17.667C10.552 17.667 10.9997 17.2193 10.9997 16.667L8.99968 16.667ZM10.9997 3.33366C10.9997 2.78137 10.552 2.33366 9.99967 2.33366C9.44739 2.33366 8.99967 2.78137 8.99967 3.33366H10.9997ZM5.12275 5.96305C4.73398 6.35531 4.7368 6.98847 5.12906 7.37725C5.52133 7.76602 6.15448 7.7632 6.54326 7.37094L5.12275 5.96305ZM7.2891 5.19785L7.99935 5.9018L7.2891 5.19785ZM12.7103 5.19785L13.4205 4.49391L12.7103 5.19785ZM13.4561 7.37094C13.8449 7.7632 14.478 7.76602 14.8703 7.37725C15.2625 6.98847 15.2654 6.35531 14.8766 5.96305L13.4561 7.37094ZM9.73856 3.35023L9.61213 2.35826H9.61212L9.73856 3.35023ZM10.2608 3.35023L10.3872 2.35826H10.3872L10.2608 3.35023ZM9.99968 16.667L10.9997 16.667L10.9997 3.33366H9.99967H8.99967L8.99968 16.667L9.99968 16.667ZM5.83301 6.66699L6.54326 7.37094L7.99935 5.9018L7.2891 5.19785L6.57884 4.49391L5.12275 5.96305L5.83301 6.66699ZM12.7103 5.19785L12 5.9018L13.4561 7.37094L14.1663 6.66699L14.8766 5.96305L13.4205 4.49391L12.7103 5.19785ZM7.2891 5.19785L7.99935 5.9018C8.59651 5.29929 8.98596 4.9085 9.31007 4.6482C9.61841 4.40058 9.7692 4.35442 9.865 4.34221L9.73856 3.35023L9.61212 2.35826C9.00027 2.43625 8.50692 2.72809 8.05775 3.08882C7.62434 3.43688 7.14289 3.9248 6.57884 4.49391L7.2891 5.19785ZM12.7103 5.19785L13.4205 4.49391C12.8565 3.9248 12.375 3.43688 11.9416 3.08882C11.4924 2.72809 10.9991 2.43625 10.3872 2.35826L10.2608 3.35023L10.1343 4.34221C10.2302 4.35442 10.3809 4.40058 10.6893 4.6482C11.0134 4.9085 11.4028 5.29929 12 5.9018L12.7103 5.19785ZM9.73856 3.35023L9.865 4.34221C9.95443 4.33081 10.0449 4.33081 10.1343 4.34221L10.2608 3.35023L10.3872 2.35826C10.1299 2.32546 9.86946 2.32546 9.61213 2.35826L9.73856 3.35023Z" fill="#292725"/>
</svg>
