<svg width="20" height="20" viewBox="0 0 20 20" fill="none" xmlns="http://www.w3.org/2000/svg">
<path d="M16.6663 10.9999C17.2186 10.9999 17.6663 10.5522 17.6663 9.99992C17.6663 9.44763 17.2186 8.99992 16.6663 8.99992V10.9999ZM3.33301 8.99992C2.78072 8.99992 2.33301 9.44763 2.33301 9.99992C2.33301 10.5522 2.78072 10.9999 3.33301 10.9999V8.99992ZM5.9624 14.8768C6.35466 15.2656 6.98782 15.2628 7.3766 14.8705C7.76537 14.4783 7.76255 13.8451 7.37029 13.4563L5.9624 14.8768ZM5.1972 12.7105L5.90115 12.0002L5.1972 12.7105ZM5.1972 7.28934L4.49326 6.57909L4.49326 6.57909L5.1972 7.28934ZM7.37029 6.54351C7.76255 6.15473 7.76537 5.52157 7.3766 5.12931C6.98782 4.73704 6.35466 4.73422 5.9624 5.123L7.37029 6.54351ZM3.34958 10.261L2.35761 10.3875L2.35761 10.3875L3.34958 10.261ZM3.34958 9.73881L2.35761 9.61237L2.35761 9.61237L3.34958 9.73881ZM16.6663 9.99992V8.99992H3.33301V9.99992V10.9999H16.6663V9.99992ZM6.66634 14.1666L7.37029 13.4563L5.90115 12.0002L5.1972 12.7105L4.49326 13.4208L5.9624 14.8768L6.66634 14.1666ZM5.1972 7.28934L5.90114 7.9996L7.37029 6.54351L6.66634 5.83325L5.9624 5.123L4.49326 6.57909L5.1972 7.28934ZM5.1972 12.7105L5.90115 12.0002C5.29864 11.4031 4.90785 11.0136 4.64755 10.6895C4.39993 10.3812 4.35377 10.2304 4.34156 10.1346L3.34958 10.261L2.35761 10.3875C2.4356 10.9993 2.72744 11.4927 3.08817 11.9418C3.43623 12.3752 3.92415 12.8567 4.49326 13.4208L5.1972 12.7105ZM5.1972 7.28934L4.49326 6.57909C3.92415 7.14314 3.43623 7.62459 3.08817 8.05799C2.72744 8.50717 2.4356 9.00052 2.35761 9.61237L3.34958 9.73881L4.34156 9.86525C4.35377 9.76944 4.39993 9.61866 4.64755 9.31032C4.90785 8.9862 5.29864 8.59675 5.90114 7.9996L5.1972 7.28934ZM3.34958 10.261L4.34156 10.1346C4.33016 10.0452 4.33016 9.95468 4.34156 9.86525L3.34958 9.73881L2.35761 9.61237C2.32481 9.86971 2.32481 10.1301 2.35761 10.3875L3.34958 10.261Z" fill="#292725"/>
</svg>
