<svg width="20" height="20" viewBox="0 0 20 20" fill="none" xmlns="http://www.w3.org/2000/svg">
<path d="M3.33301 8.99992C2.78072 8.99992 2.33301 9.44764 2.33301 9.99992C2.33301 10.5522 2.78072 10.9999 3.33301 10.9999L3.33301 8.99992ZM16.6663 10.9999C17.2186 10.9999 17.6663 10.5522 17.6663 9.99992C17.6663 9.44763 17.2186 8.99992 16.6663 8.99992V10.9999ZM14.037 5.123C13.6447 4.73422 13.0115 4.73704 12.6228 5.12931C12.234 5.52157 12.2368 6.15473 12.6291 6.54351L14.037 5.123ZM14.8021 7.28934L14.0982 7.9996L14.8021 7.28934ZM14.8021 12.7105L15.5061 13.4207L14.8021 12.7105ZM12.6291 13.4563C12.2368 13.8451 12.234 14.4783 12.6228 14.8705C13.0115 15.2628 13.6447 15.2656 14.037 14.8768L12.6291 13.4563ZM16.6498 9.73881L17.6417 9.61237V9.61237L16.6498 9.73881ZM16.6498 10.261L17.6417 10.3875V10.3875L16.6498 10.261ZM3.33301 9.99992L3.33301 10.9999L16.6663 10.9999V9.99992V8.99992L3.33301 8.99992L3.33301 9.99992ZM13.333 5.83325L12.6291 6.54351L14.0982 7.9996L14.8021 7.28934L15.5061 6.57909L14.037 5.123L13.333 5.83325ZM14.8021 12.7105L14.0982 12.0002L12.6291 13.4563L13.333 14.1666L14.037 14.8768L15.5061 13.4207L14.8021 12.7105ZM14.8021 7.28934L14.0982 7.9996C14.7007 8.59675 15.0915 8.9862 15.3518 9.31032C15.5994 9.61866 15.6456 9.76944 15.6578 9.86525L16.6498 9.73881L17.6417 9.61237C17.5638 9.00052 17.2719 8.50717 16.9112 8.05799C16.5631 7.62459 16.0752 7.14314 15.5061 6.57909L14.8021 7.28934ZM14.8021 12.7105L15.5061 13.4207C16.0752 12.8567 16.5631 12.3752 16.9112 11.9418C17.2719 11.4927 17.5638 10.9993 17.6417 10.3875L16.6498 10.261L15.6578 10.1346C15.6456 10.2304 15.5994 10.3812 15.3518 10.6895C15.0915 11.0136 14.7007 11.4031 14.0982 12.0002L14.8021 12.7105ZM16.6498 9.73881L15.6578 9.86525C15.6692 9.95468 15.6692 10.0452 15.6578 10.1346L16.6498 10.261L17.6417 10.3875C17.6745 10.1301 17.6745 9.86971 17.6417 9.61237L16.6498 9.73881Z" fill="#292725"/>
</svg>
