<svg width="25" height="26" viewBox="0 0 25 26" fill="none" xmlns="http://www.w3.org/2000/svg">
<path d="M7.12663 0.662109C3.34176 0.662109 0.272461 3.73141 0.272461 7.51628V18.4829C0.272461 22.2678 3.34176 25.3371 7.12663 25.3371H18.0933C21.8782 25.3371 24.9475 22.2678 24.9475 18.4829V7.51628C24.9475 3.73141 21.8782 0.662109 18.0933 0.662109H7.12663ZM20.835 3.40378C21.5917 3.40378 22.2058 4.01791 22.2058 4.77461C22.2058 5.53131 21.5917 6.14544 20.835 6.14544C20.0783 6.14544 19.4641 5.53131 19.4641 4.77461C19.4641 4.01791 20.0783 3.40378 20.835 3.40378ZM12.61 6.14544C16.3948 6.14544 19.4641 9.21474 19.4641 12.9996C19.4641 16.7845 16.3948 19.8538 12.61 19.8538C8.82509 19.8538 5.75579 16.7845 5.75579 12.9996C5.75579 9.21474 8.82509 6.14544 12.61 6.14544ZM12.61 8.88711C11.5193 8.88711 10.4732 9.32039 9.70198 10.0916C8.93074 10.8629 8.49746 11.9089 8.49746 12.9996C8.49746 14.0903 8.93074 15.1363 9.70198 15.9076C10.4732 16.6788 11.5193 17.1121 12.61 17.1121C13.7007 17.1121 14.7467 16.6788 15.5179 15.9076C16.2892 15.1363 16.7225 14.0903 16.7225 12.9996C16.7225 11.9089 16.2892 10.8629 15.5179 10.0916C14.7467 9.32039 13.7007 8.88711 12.61 8.88711Z" fill="white"/>
</svg>
