<svg width="25" height="26" viewBox="0 0 25 26" fill="none" xmlns="http://www.w3.org/2000/svg">
<path d="M7.12663 0.662498C3.34176 0.662498 0.272461 3.73179 0.272461 7.51667V18.4833C0.272461 22.2682 3.34176 25.3375 7.12663 25.3375H18.0933C21.8782 25.3375 24.9475 22.2682 24.9475 18.4833V7.51667C24.9475 3.73179 21.8782 0.662498 18.0933 0.662498H7.12663ZM20.835 3.40417C21.5917 3.40417 22.2058 4.0183 22.2058 4.775C22.2058 5.5317 21.5917 6.14583 20.835 6.14583C20.0783 6.14583 19.4641 5.5317 19.4641 4.775C19.4641 4.0183 20.0783 3.40417 20.835 3.40417ZM12.61 6.14583C16.3948 6.14583 19.4641 9.21513 19.4641 13C19.4641 16.7849 16.3948 19.8542 12.61 19.8542C8.82509 19.8542 5.75579 16.7849 5.75579 13C5.75579 9.21513 8.82509 6.14583 12.61 6.14583ZM12.61 8.8875C11.5193 8.8875 10.4732 9.32078 9.70198 10.092C8.93074 10.8633 8.49746 11.9093 8.49746 13C8.49746 14.0907 8.93074 15.1367 9.70198 15.908C10.4732 16.6792 11.5193 17.1125 12.61 17.1125C13.7007 17.1125 14.7467 16.6792 15.5179 15.908C16.2892 15.1367 16.7225 14.0907 16.7225 13C16.7225 11.9093 16.2892 10.8633 15.5179 10.092C14.7467 9.32078 13.7007 8.8875 12.61 8.8875Z" fill="black"/>
</svg>
