<svg width="24" height="20" viewBox="0 0 24 20" fill="none" xmlns="http://www.w3.org/2000/svg">
<path d="M2.52544 9.2935C2.57137 9.2713 2.61733 9.25021 2.66211 9.23023C3.44061 8.88169 4.22946 8.55536 5.01715 8.22902C5.05963 8.22902 5.13081 8.18129 5.17099 8.16575C5.23185 8.14022 5.29272 8.1158 5.35358 8.09027C5.4707 8.04143 5.58782 7.9937 5.70379 7.94486C5.93804 7.84829 6.17111 7.75171 6.40535 7.65514L7.80735 7.07462C8.74202 6.68834 9.67786 6.30095 10.6125 5.91467C11.5472 5.52839 12.483 5.141 13.4177 4.75472C14.3523 4.36844 15.2881 3.98106 16.2228 3.59478C17.1575 3.2085 18.0933 2.82111 19.028 2.43483C19.2358 2.34825 19.4609 2.21949 19.6836 2.18175C19.8708 2.14956 20.0533 2.0874 20.2417 2.053C20.5988 1.98751 20.9926 1.96087 21.3348 2.10406C21.453 2.15401 21.5621 2.22394 21.6528 2.31163C22.0869 2.72676 22.026 3.4083 21.9342 3.99216C21.2946 8.0614 20.655 12.1318 20.0143 16.201C19.927 16.7593 19.8076 17.3721 19.3518 17.725C18.966 18.0236 18.4171 18.0569 17.9406 17.9304C17.4641 17.8027 17.0438 17.5352 16.6316 17.2722C14.9219 16.1777 13.211 15.0832 11.5013 13.9888C11.0948 13.729 10.6424 13.3894 10.647 12.9176C10.6493 12.6335 10.8249 12.3804 11.0041 12.1551C12.4899 10.2814 14.6337 8.9938 16.2286 7.20671C16.4536 6.95474 16.6304 6.49964 16.3216 6.35423C16.1379 6.26765 15.9266 6.38531 15.7589 6.49742C13.6507 7.91266 11.5437 9.32902 9.43558 10.7443C8.74778 11.206 8.02669 11.6811 7.19766 11.7943C6.45589 11.8964 5.70954 11.6966 4.99189 11.4924C4.39021 11.3215 3.78966 11.1461 3.19143 10.9652C2.87337 10.8697 2.54497 10.7665 2.29924 10.55C2.05352 10.3336 1.91231 9.96949 2.06043 9.68089C2.15344 9.49996 2.33371 9.38563 2.52317 9.29239L2.52544 9.2935Z" fill="white"/>
</svg>
