<svg width="172" height="61" viewBox="0 0 172 61" fill="none" xmlns="http://www.w3.org/2000/svg">
<rect x="5.5" y="0.5" width="160" height="52" fill="white" stroke="#141414"/>
<rect x="48" y="48" width="75" height="10" rx="2" fill="#F5F5F5"/>
<path d="M135.232 16.1499V16.7499C134.552 16.7699 134.032 16.8499 133.672 16.9899C133.332 17.1099 133.102 17.3499 132.982 17.7099C132.862 18.0499 132.802 18.5899 132.802 19.3299V34.2099C132.802 34.9299 132.862 35.4699 132.982 35.8299C133.102 36.1899 133.332 36.4299 133.672 36.5499C134.032 36.6699 134.552 36.7499 135.232 36.7899V37.3899C134.772 37.3499 134.192 37.3299 133.492 37.3299C132.812 37.3099 132.122 37.2999 131.422 37.2999C130.642 37.2999 129.912 37.3099 129.232 37.3299C128.552 37.3299 128.002 37.3499 127.582 37.3899V36.7899C128.262 36.7499 128.772 36.6699 129.112 36.5499C129.472 36.4299 129.712 36.1899 129.832 35.8299C129.952 35.4699 130.012 34.9299 130.012 34.2099V19.3299C130.012 18.5899 129.952 18.0499 129.832 17.7099C129.712 17.3499 129.472 17.1099 129.112 16.9899C128.772 16.8499 128.262 16.7699 127.582 16.7499V16.1499C128.002 16.1699 128.552 16.1899 129.232 16.2099C129.912 16.2299 130.642 16.2399 131.422 16.2399C132.122 16.2399 132.812 16.2299 133.492 16.2099C134.192 16.1899 134.772 16.1699 135.232 16.1499Z" fill="black"/>
<path d="M117.595 16.1499V16.7499C116.915 16.7699 116.395 16.8499 116.035 16.9899C115.695 17.1099 115.465 17.3499 115.345 17.7099C115.225 18.0499 115.165 18.5899 115.165 19.3299V34.2099C115.165 34.9299 115.225 35.4699 115.345 35.8299C115.465 36.1899 115.695 36.4299 116.035 36.5499C116.395 36.6499 116.915 36.6999 117.595 36.6999H119.785C120.725 36.6999 121.485 36.5999 122.065 36.3999C122.665 36.1999 123.135 35.8899 123.475 35.4699C123.835 35.0299 124.105 34.4499 124.285 33.7299C124.465 33.0099 124.605 32.1299 124.705 31.0899H125.395C125.335 31.7099 125.305 32.5299 125.305 33.5499C125.305 33.9299 125.315 34.4799 125.335 35.1999C125.375 35.8999 125.435 36.6299 125.515 37.3899C124.495 37.3499 123.345 37.3299 122.065 37.3299C120.785 37.3099 119.645 37.2999 118.645 37.2999C118.205 37.2999 117.635 37.2999 116.935 37.2999C116.255 37.2999 115.515 37.3099 114.715 37.3299C113.915 37.3299 113.105 37.3399 112.285 37.3599C111.465 37.3599 110.685 37.3699 109.945 37.3899V36.7899C110.625 36.7499 111.135 36.6699 111.475 36.5499C111.835 36.4299 112.075 36.1899 112.195 35.8299C112.315 35.4699 112.375 34.9299 112.375 34.2099V19.3299C112.375 18.5899 112.315 18.0499 112.195 17.7099C112.075 17.3499 111.835 17.1099 111.475 16.9899C111.135 16.8499 110.625 16.7699 109.945 16.7499V16.1499C110.365 16.1699 110.915 16.1899 111.595 16.2099C112.275 16.2299 113.005 16.2399 113.785 16.2399C114.485 16.2399 115.175 16.2299 115.855 16.2099C116.555 16.1899 117.135 16.1699 117.595 16.1499Z" fill="black"/>
<path d="M100.065 16L107.385 34.87C107.685 35.63 108.025 36.14 108.405 36.4C108.785 36.64 109.135 36.77 109.455 36.79V37.39C109.055 37.35 108.565 37.33 107.985 37.33C107.405 37.31 106.825 37.3 106.245 37.3C105.465 37.3 104.735 37.31 104.055 37.33C103.375 37.33 102.825 37.35 102.405 37.39V36.79C103.425 36.75 104.075 36.58 104.355 36.28C104.635 35.96 104.575 35.29 104.175 34.27L98.595 19.36L99.075 18.97L93.855 32.53C93.535 33.33 93.345 34.01 93.285 34.57C93.225 35.11 93.275 35.54 93.435 35.86C93.615 36.18 93.905 36.41 94.305 36.55C94.725 36.69 95.245 36.77 95.865 36.79V37.39C95.305 37.35 94.715 37.33 94.095 37.33C93.495 37.31 92.935 37.3 92.415 37.3C91.915 37.3 91.485 37.31 91.125 37.33C90.785 37.33 90.465 37.35 90.165 37.39V36.79C90.565 36.69 90.975 36.46 91.395 36.1C91.815 35.72 92.195 35.08 92.535 34.18L99.585 16C99.665 16 99.745 16 99.825 16C99.905 16 99.985 16 100.065 16ZM103.725 28.75V29.35H94.785L95.085 28.75H103.725Z" fill="black"/>
<path d="M90.9086 16.1499C90.8286 16.9099 90.7686 17.6499 90.7286 18.3699C90.7086 19.0699 90.6986 19.6099 90.6986 19.9899C90.6986 20.4699 90.7086 20.9199 90.7286 21.3399C90.7486 21.7599 90.7686 22.1299 90.7886 22.4499H90.0986C89.9586 21.0499 89.7686 19.9499 89.5286 19.1499C89.2886 18.3299 88.8686 17.7399 88.2686 17.3799C87.6686 17.0199 86.7386 16.8399 85.4786 16.8399H83.8586V33.9099C83.8586 34.7099 83.9286 35.3099 84.0686 35.7099C84.2286 36.1099 84.5286 36.3799 84.9686 36.5199C85.4086 36.6599 86.0486 36.7499 86.8886 36.7899V37.3899C86.3686 37.3499 85.7086 37.3299 84.9086 37.3299C84.1086 37.3099 83.2986 37.2999 82.4786 37.2999C81.5786 37.2999 80.7286 37.3099 79.9286 37.3299C79.1486 37.3299 78.5186 37.3499 78.0386 37.3899V36.7899C78.8786 36.7499 79.5186 36.6599 79.9586 36.5199C80.3986 36.3799 80.6886 36.1099 80.8286 35.7099C80.9886 35.3099 81.0686 34.7099 81.0686 33.9099V16.8399H79.4486C78.2086 16.8399 77.2786 17.0199 76.6586 17.3799C76.0586 17.7399 75.6386 18.3299 75.3986 19.1499C75.1586 19.9499 74.9686 21.0499 74.8286 22.4499H74.1386C74.1786 22.1299 74.1986 21.7599 74.1986 21.3399C74.2186 20.9199 74.2286 20.4699 74.2286 19.9899C74.2286 19.6099 74.2086 19.0699 74.1686 18.3699C74.1486 17.6499 74.0986 16.9099 74.0186 16.1499C74.8586 16.1699 75.7686 16.1899 76.7486 16.2099C77.7486 16.2299 78.7486 16.2399 79.7486 16.2399C80.7486 16.2399 81.6586 16.2399 82.4786 16.2399C83.2986 16.2399 84.1986 16.2399 85.1786 16.2399C86.1786 16.2399 87.1786 16.2299 88.1786 16.2099C89.1786 16.1899 90.0886 16.1699 90.9086 16.1499Z" fill="black"/>
<path d="M65.4361 16L72.7561 34.87C73.0561 35.63 73.3961 36.14 73.7761 36.4C74.1561 36.64 74.5061 36.77 74.8261 36.79V37.39C74.4261 37.35 73.9361 37.33 73.3561 37.33C72.7761 37.31 72.1961 37.3 71.6161 37.3C70.8361 37.3 70.1061 37.31 69.4261 37.33C68.7461 37.33 68.1961 37.35 67.7761 37.39V36.79C68.7961 36.75 69.4461 36.58 69.7261 36.28C70.0061 35.96 69.9461 35.29 69.5461 34.27L63.9661 19.36L64.4461 18.97L59.2261 32.53C58.9061 33.33 58.7161 34.01 58.6561 34.57C58.5961 35.11 58.6461 35.54 58.8061 35.86C58.9861 36.18 59.2761 36.41 59.6761 36.55C60.0961 36.69 60.6161 36.77 61.2361 36.79V37.39C60.6761 37.35 60.0861 37.33 59.4661 37.33C58.8661 37.31 58.3061 37.3 57.7861 37.3C57.2861 37.3 56.8561 37.31 56.4961 37.33C56.1561 37.33 55.8361 37.35 55.5361 37.39V36.79C55.9361 36.69 56.3461 36.46 56.7661 36.1C57.1861 35.72 57.5661 35.08 57.9061 34.18L64.9561 16C65.0361 16 65.1161 16 65.1961 16C65.2761 16 65.3561 16 65.4361 16ZM69.0961 28.75V29.35H60.1561L60.4561 28.75H69.0961Z" fill="black"/>
<path d="M54.84 16.1499V16.7499C54.16 16.7699 53.64 16.8699 53.28 17.0499C52.94 17.2299 52.71 17.5199 52.59 17.9199C52.47 18.3199 52.41 18.8899 52.41 19.6299V37.5399C52.29 37.5399 52.17 37.5399 52.05 37.5399C51.95 37.5399 51.84 37.5399 51.72 37.5399L39.12 18.0699V33.9099C39.12 34.6299 39.18 35.1999 39.3 35.6199C39.44 36.0199 39.7 36.3099 40.08 36.4899C40.48 36.6499 41.07 36.7499 41.85 36.7899V37.3899C41.49 37.3499 41.02 37.3299 40.44 37.3299C39.86 37.3099 39.31 37.2999 38.79 37.2999C38.29 37.2999 37.78 37.3099 37.26 37.3299C36.76 37.3299 36.34 37.3499 36 37.3899V36.7899C36.68 36.7499 37.19 36.6499 37.53 36.4899C37.89 36.3099 38.13 36.0199 38.25 35.6199C38.37 35.1999 38.43 34.6299 38.43 33.9099V19.3299C38.43 18.5899 38.37 18.0499 38.25 17.7099C38.13 17.3499 37.89 17.1099 37.53 16.9899C37.19 16.8499 36.68 16.7699 36 16.7499V16.1499C36.34 16.1699 36.76 16.1899 37.26 16.2099C37.78 16.2299 38.29 16.2399 38.79 16.2399C39.23 16.2399 39.65 16.2299 40.05 16.2099C40.45 16.1899 40.81 16.1699 41.13 16.1499L51.72 32.4699V19.6299C51.72 18.8899 51.65 18.3199 51.51 17.9199C51.39 17.5199 51.13 17.2299 50.73 17.0499C50.35 16.8699 49.77 16.7699 48.99 16.7499V16.1499C49.35 16.1699 49.82 16.1899 50.4 16.2099C51 16.2299 51.55 16.2399 52.05 16.2399C52.57 16.2399 53.08 16.2299 53.58 16.2099C54.1 16.1899 54.52 16.1699 54.84 16.1499Z" fill="black"/>
<path d="M111.691 51.9588C111.669 51.7789 111.583 51.6392 111.432 51.5398C111.28 51.4403 111.094 51.3906 110.874 51.3906C110.713 51.3906 110.572 51.4167 110.451 51.4688C110.332 51.5208 110.238 51.5924 110.171 51.6836C110.105 51.7747 110.071 51.8783 110.071 51.9943C110.071 52.0914 110.095 52.1748 110.141 52.2447C110.188 52.3133 110.248 52.3707 110.322 52.4169C110.395 52.4619 110.472 52.4992 110.553 52.5288C110.633 52.5572 110.707 52.5803 110.775 52.598L111.144 52.6974C111.239 52.7223 111.344 52.7566 111.46 52.8004C111.577 52.8442 111.689 52.904 111.796 52.9798C111.903 53.0543 111.992 53.1502 112.062 53.2674C112.132 53.3846 112.167 53.5284 112.167 53.6989C112.167 53.8954 112.115 54.0729 112.012 54.2315C111.91 54.3902 111.761 54.5162 111.565 54.6097C111.369 54.7032 111.132 54.75 110.853 54.75C110.592 54.75 110.367 54.708 110.176 54.6239C109.987 54.5399 109.838 54.4227 109.729 54.2724C109.621 54.122 109.56 53.9474 109.546 53.7486H110C110.012 53.8859 110.058 53.9995 110.139 54.0895C110.221 54.1783 110.324 54.2446 110.448 54.2884C110.573 54.331 110.708 54.3523 110.853 54.3523C111.021 54.3523 111.172 54.325 111.305 54.2706C111.439 54.215 111.545 54.138 111.623 54.0398C111.701 53.9403 111.741 53.8243 111.741 53.6918C111.741 53.571 111.707 53.4728 111.639 53.397C111.572 53.3213 111.483 53.2597 111.373 53.2124C111.263 53.165 111.144 53.1236 111.016 53.0881L110.569 52.9602C110.285 52.8786 110.06 52.762 109.894 52.6104C109.728 52.4589 109.645 52.2607 109.645 52.0156C109.645 51.812 109.7 51.6345 109.81 51.483C109.922 51.3303 110.071 51.2119 110.258 51.1278C110.446 51.0426 110.656 51 110.888 51C111.123 51 111.331 51.042 111.513 51.1261C111.696 51.2089 111.84 51.3226 111.946 51.467C112.054 51.6114 112.111 51.7753 112.117 51.9588H111.691Z" fill="black"/>
<path d="M104.89 54.6862V51.0498H105.33V54.2955H107.02V54.6862H104.89Z" fill="black"/>
<path d="M102.007 51.0498V54.6862H101.566V51.0498H102.007Z" fill="black"/>
<path d="M96.3366 54.6862H95.875L97.2102 51.0498H97.6648L99 54.6862H98.5384L97.4517 51.6251H97.4233L96.3366 54.6862ZM96.5071 53.2657H98.3679V53.6563H96.5071V53.2657Z" fill="black"/>
<path d="M93.3064 51.0498V54.6862H92.8802L90.8987 51.8311H90.8632V54.6862H90.4229V51.0498H90.849L92.8376 53.912H92.8731V51.0498H93.3064Z" fill="black"/>
<path d="M84.1337 51.0498V54.6862H83.6934V51.0498H84.1337Z" fill="black"/>
<path d="M78.8809 54.6862V51.0498H79.3212V54.2955H81.0115V54.6862H78.8809Z" fill="black"/>
<path d="M73.6511 54.6862H73.1895L74.5247 51.0498H74.9792L76.3145 54.6862H75.8528L74.7662 51.6251H74.7377L73.6511 54.6862ZM73.8216 53.2657H75.6824V53.6563H73.8216V53.2657Z" fill="black"/>
<path d="M68.52 51.4404V51.0498H71.2473V51.4404H70.1038V54.6862H69.6635V51.4404H68.52Z" fill="black"/>
<path d="M63.9138 54.6862H63.4521L64.7874 51.0498H65.2419L66.5771 54.6862H66.1155L65.0289 51.6251H65.0004L63.9138 54.6862ZM64.0843 53.2657H65.945V53.6563H64.0843V53.2657Z" fill="black"/>
<path d="M60.8835 51.0498V54.6862H60.4574L58.4759 51.8311H58.4403V54.6862H58V51.0498H58.4261L60.4148 53.912H60.4503V51.0498H60.8835Z" fill="black"/>
</svg>
