<svg width="181" height="70" viewBox="0 0 181 70" fill="none" xmlns="http://www.w3.org/2000/svg">
<rect x="0.5" y="0.5" width="180" height="69" stroke="#141414"/>
<rect x="10.5" y="8.5" width="160" height="52" fill="#141414" stroke="white"/>
<rect x="53" y="55" width="75" height="10" rx="2" fill="#313131"/>
<path d="M139.492 20.7598V21.3598C138.812 21.3798 138.292 21.4598 137.932 21.5998C137.592 21.7198 137.362 21.9598 137.242 22.3198C137.122 22.6598 137.062 23.1998 137.062 23.9398V38.8198C137.062 39.5398 137.122 40.0798 137.242 40.4398C137.362 40.7998 137.592 41.0398 137.932 41.1598C138.292 41.2798 138.812 41.3598 139.492 41.3998V41.9998C139.032 41.9598 138.452 41.9398 137.752 41.9398C137.072 41.9198 136.382 41.9098 135.682 41.9098C134.902 41.9098 134.172 41.9198 133.492 41.9398C132.812 41.9398 132.262 41.9598 131.842 41.9998V41.3998C132.522 41.3598 133.032 41.2798 133.372 41.1598C133.732 41.0398 133.972 40.7998 134.092 40.4398C134.212 40.0798 134.272 39.5398 134.272 38.8198V23.9398C134.272 23.1998 134.212 22.6598 134.092 22.3198C133.972 21.9598 133.732 21.7198 133.372 21.5998C133.032 21.4598 132.522 21.3798 131.842 21.3598V20.7598C132.262 20.7798 132.812 20.7998 133.492 20.8198C134.172 20.8398 134.902 20.8498 135.682 20.8498C136.382 20.8498 137.072 20.8398 137.752 20.8198C138.452 20.7998 139.032 20.7798 139.492 20.7598Z" fill="white"/>
<path d="M121.855 20.7598V21.3598C121.175 21.3798 120.655 21.4598 120.295 21.5998C119.955 21.7198 119.725 21.9598 119.605 22.3198C119.485 22.6598 119.425 23.1998 119.425 23.9398V38.8198C119.425 39.5398 119.485 40.0798 119.605 40.4398C119.725 40.7998 119.955 41.0398 120.295 41.1598C120.655 41.2598 121.175 41.3098 121.855 41.3098H124.045C124.985 41.3098 125.745 41.2098 126.325 41.0098C126.925 40.8098 127.395 40.4998 127.735 40.0798C128.095 39.6398 128.365 39.0598 128.545 38.3398C128.725 37.6198 128.865 36.7398 128.965 35.6998H129.655C129.595 36.3198 129.565 37.1398 129.565 38.1598C129.565 38.5398 129.575 39.0898 129.595 39.8098C129.635 40.5098 129.695 41.2398 129.775 41.9998C128.755 41.9598 127.605 41.9398 126.325 41.9398C125.045 41.9198 123.905 41.9098 122.905 41.9098C122.465 41.9098 121.895 41.9098 121.195 41.9098C120.515 41.9098 119.775 41.9198 118.975 41.9398C118.175 41.9398 117.365 41.9498 116.545 41.9698C115.725 41.9698 114.945 41.9798 114.205 41.9998V41.3998C114.885 41.3598 115.395 41.2798 115.735 41.1598C116.095 41.0398 116.335 40.7998 116.455 40.4398C116.575 40.0798 116.635 39.5398 116.635 38.8198V23.9398C116.635 23.1998 116.575 22.6598 116.455 22.3198C116.335 21.9598 116.095 21.7198 115.735 21.5998C115.395 21.4598 114.885 21.3798 114.205 21.3598V20.7598C114.625 20.7798 115.175 20.7998 115.855 20.8198C116.535 20.8398 117.265 20.8498 118.045 20.8498C118.745 20.8498 119.435 20.8398 120.115 20.8198C120.815 20.7998 121.395 20.7798 121.855 20.7598Z" fill="white"/>
<path d="M104.325 20.6104L111.645 39.4804C111.945 40.2404 112.285 40.7504 112.665 41.0104C113.045 41.2504 113.395 41.3804 113.715 41.4004V42.0004C113.315 41.9604 112.825 41.9404 112.245 41.9404C111.665 41.9204 111.085 41.9104 110.505 41.9104C109.725 41.9104 108.995 41.9204 108.315 41.9404C107.635 41.9404 107.085 41.9604 106.665 42.0004V41.4004C107.685 41.3604 108.335 41.1904 108.615 40.8904C108.895 40.5704 108.835 39.9004 108.435 38.8804L102.855 23.9704L103.335 23.5804L98.1148 37.1404C97.7948 37.9404 97.6048 38.6204 97.5448 39.1804C97.4848 39.7204 97.5348 40.1504 97.6948 40.4704C97.8748 40.7904 98.1648 41.0204 98.5648 41.1604C98.9848 41.3004 99.5048 41.3804 100.125 41.4004V42.0004C99.5648 41.9604 98.9748 41.9404 98.3548 41.9404C97.7548 41.9204 97.1948 41.9104 96.6748 41.9104C96.1748 41.9104 95.7448 41.9204 95.3848 41.9404C95.0448 41.9404 94.7248 41.9604 94.4248 42.0004V41.4004C94.8248 41.3004 95.2348 41.0704 95.6548 40.7104C96.0748 40.3304 96.4548 39.6904 96.7948 38.7904L103.845 20.6104C103.925 20.6104 104.005 20.6104 104.085 20.6104C104.165 20.6104 104.245 20.6104 104.325 20.6104ZM107.985 33.3604V33.9604H99.0448L99.3448 33.3604H107.985Z" fill="white"/>
<path d="M95.1683 20.7598C95.0883 21.5198 95.0283 22.2598 94.9883 22.9798C94.9683 23.6798 94.9583 24.2198 94.9583 24.5998C94.9583 25.0798 94.9683 25.5298 94.9883 25.9498C95.0083 26.3698 95.0283 26.7398 95.0483 27.0598H94.3583C94.2183 25.6598 94.0283 24.5598 93.7883 23.7598C93.5483 22.9398 93.1283 22.3498 92.5283 21.9898C91.9283 21.6298 90.9983 21.4498 89.7383 21.4498H88.1183V38.5198C88.1183 39.3198 88.1883 39.9198 88.3283 40.3198C88.4883 40.7198 88.7883 40.9898 89.2283 41.1298C89.6683 41.2698 90.3083 41.3598 91.1483 41.3998V41.9998C90.6283 41.9598 89.9683 41.9398 89.1683 41.9398C88.3683 41.9198 87.5583 41.9098 86.7383 41.9098C85.8383 41.9098 84.9883 41.9198 84.1883 41.9398C83.4083 41.9398 82.7783 41.9598 82.2983 41.9998V41.3998C83.1383 41.3598 83.7783 41.2698 84.2183 41.1298C84.6583 40.9898 84.9483 40.7198 85.0883 40.3198C85.2483 39.9198 85.3283 39.3198 85.3283 38.5198V21.4498H83.7083C82.4683 21.4498 81.5383 21.6298 80.9183 21.9898C80.3183 22.3498 79.8983 22.9398 79.6583 23.7598C79.4183 24.5598 79.2283 25.6598 79.0883 27.0598H78.3983C78.4383 26.7398 78.4583 26.3698 78.4583 25.9498C78.4783 25.5298 78.4883 25.0798 78.4883 24.5998C78.4883 24.2198 78.4683 23.6798 78.4283 22.9798C78.4083 22.2598 78.3583 21.5198 78.2783 20.7598C79.1183 20.7798 80.0283 20.7998 81.0083 20.8198C82.0083 20.8398 83.0083 20.8498 84.0083 20.8498C85.0083 20.8498 85.9183 20.8498 86.7383 20.8498C87.5583 20.8498 88.4583 20.8498 89.4383 20.8498C90.4383 20.8498 91.4383 20.8398 92.4383 20.8198C93.4383 20.7998 94.3483 20.7798 95.1683 20.7598Z" fill="white"/>
<path d="M69.6959 20.6104L77.0159 39.4804C77.3159 40.2404 77.6559 40.7504 78.0359 41.0104C78.4159 41.2504 78.7659 41.3804 79.0859 41.4004V42.0004C78.6859 41.9604 78.1959 41.9404 77.6159 41.9404C77.0359 41.9204 76.4559 41.9104 75.8759 41.9104C75.0959 41.9104 74.3659 41.9204 73.6859 41.9404C73.0059 41.9404 72.4559 41.9604 72.0359 42.0004V41.4004C73.0559 41.3604 73.7059 41.1904 73.9859 40.8904C74.2659 40.5704 74.2059 39.9004 73.8059 38.8804L68.2259 23.9704L68.7059 23.5804L63.4859 37.1404C63.1659 37.9404 62.9759 38.6204 62.9159 39.1804C62.8559 39.7204 62.9059 40.1504 63.0659 40.4704C63.2459 40.7904 63.5359 41.0204 63.9359 41.1604C64.3559 41.3004 64.8759 41.3804 65.4959 41.4004V42.0004C64.9359 41.9604 64.3459 41.9404 63.7259 41.9404C63.1259 41.9204 62.5659 41.9104 62.0459 41.9104C61.5459 41.9104 61.1159 41.9204 60.7559 41.9404C60.4159 41.9404 60.0959 41.9604 59.7959 42.0004V41.4004C60.1959 41.3004 60.6059 41.0704 61.0259 40.7104C61.4459 40.3304 61.8259 39.6904 62.1659 38.7904L69.2159 20.6104C69.2959 20.6104 69.3759 20.6104 69.4559 20.6104C69.5359 20.6104 69.6159 20.6104 69.6959 20.6104ZM73.3559 33.3604V33.9604H64.4159L64.7159 33.3604H73.3559Z" fill="white"/>
<path d="M59.0998 20.7598V21.3598C58.4198 21.3798 57.8998 21.4798 57.5398 21.6598C57.1998 21.8398 56.9698 22.1298 56.8498 22.5298C56.7298 22.9298 56.6698 23.4998 56.6698 24.2398V42.1498C56.5498 42.1498 56.4298 42.1498 56.3098 42.1498C56.2098 42.1498 56.0998 42.1498 55.9798 42.1498L43.3798 22.6798V38.5198C43.3798 39.2398 43.4398 39.8098 43.5598 40.2298C43.6998 40.6298 43.9598 40.9198 44.3398 41.0998C44.7398 41.2598 45.3298 41.3598 46.1098 41.3998V41.9998C45.7498 41.9598 45.2798 41.9398 44.6998 41.9398C44.1198 41.9198 43.5698 41.9098 43.0498 41.9098C42.5498 41.9098 42.0398 41.9198 41.5198 41.9398C41.0198 41.9398 40.5998 41.9598 40.2598 41.9998V41.3998C40.9398 41.3598 41.4498 41.2598 41.7898 41.0998C42.1498 40.9198 42.3898 40.6298 42.5098 40.2298C42.6298 39.8098 42.6898 39.2398 42.6898 38.5198V23.9398C42.6898 23.1998 42.6298 22.6598 42.5098 22.3198C42.3898 21.9598 42.1498 21.7198 41.7898 21.5998C41.4498 21.4598 40.9398 21.3798 40.2598 21.3598V20.7598C40.5998 20.7798 41.0198 20.7998 41.5198 20.8198C42.0398 20.8398 42.5498 20.8498 43.0498 20.8498C43.4898 20.8498 43.9098 20.8398 44.3098 20.8198C44.7098 20.7998 45.0698 20.7798 45.3898 20.7598L55.9798 37.0798V24.2398C55.9798 23.4998 55.9098 22.9298 55.7698 22.5298C55.6498 22.1298 55.3898 21.8398 54.9898 21.6598C54.6098 21.4798 54.0298 21.3798 53.2498 21.3598V20.7598C53.6098 20.7798 54.0798 20.7998 54.6598 20.8198C55.2598 20.8398 55.8098 20.8498 56.3098 20.8498C56.8298 20.8498 57.3398 20.8398 57.8398 20.8198C58.3598 20.7998 58.7798 20.7798 59.0998 20.7598Z" fill="white"/>
<path d="M117.131 59.2723C117.11 59.0924 117.023 58.9527 116.872 58.8532C116.72 58.7538 116.535 58.7041 116.314 58.7041C116.153 58.7041 116.013 58.7301 115.892 58.7822C115.772 58.8343 115.679 58.9059 115.611 58.9971C115.545 59.0882 115.512 59.1918 115.512 59.3078C115.512 59.4049 115.535 59.4883 115.581 59.5582C115.628 59.6268 115.689 59.6842 115.762 59.7304C115.836 59.7754 115.913 59.8126 115.993 59.8422C116.074 59.8706 116.148 59.8937 116.215 59.9115L116.584 60.0109C116.679 60.0358 116.784 60.0701 116.9 60.1139C117.018 60.1577 117.129 60.2175 117.236 60.2932C117.344 60.3678 117.432 60.4637 117.502 60.5809C117.572 60.6981 117.607 60.8419 117.607 61.0123C117.607 61.2088 117.556 61.3864 117.453 61.545C117.351 61.7036 117.202 61.8297 117.005 61.9232C116.81 62.0167 116.573 62.0635 116.293 62.0635C116.033 62.0635 115.807 62.0215 115.617 61.9374C115.427 61.8534 115.278 61.7362 115.169 61.5858C115.061 61.4355 115.001 61.2609 114.986 61.0621H115.441C115.453 61.1994 115.499 61.313 115.579 61.403C115.661 61.4917 115.764 61.558 115.888 61.6018C116.014 61.6444 116.149 61.6657 116.293 61.6657C116.461 61.6657 116.612 61.6385 116.746 61.5841C116.88 61.5284 116.986 61.4515 117.064 61.3532C117.142 61.2538 117.181 61.1378 117.181 61.0052C117.181 60.8845 117.147 60.7863 117.08 60.7105C117.012 60.6347 116.923 60.5732 116.813 60.5258C116.703 60.4785 116.584 60.4371 116.456 60.4015L116.009 60.2737C115.725 60.192 115.5 60.0754 115.334 59.9239C115.169 59.7724 115.086 59.5741 115.086 59.3291C115.086 59.1255 115.141 58.9479 115.251 58.7964C115.362 58.6437 115.511 58.5254 115.698 58.4413C115.887 58.3561 116.097 58.3135 116.329 58.3135C116.563 58.3135 116.771 58.3555 116.954 58.4395C117.136 58.5224 117.28 58.636 117.387 58.7805C117.495 58.9249 117.551 59.0888 117.557 59.2723H117.131Z" fill="white"/>
<path d="M110.33 61.9996V58.3633H110.77V61.609H112.461V61.9996H110.33Z" fill="white"/>
<path d="M107.447 58.3633V61.9996H107.007V58.3633H107.447Z" fill="white"/>
<path d="M101.777 61.9996H101.315L102.651 58.3633H103.105L104.44 61.9996H103.979L102.892 58.9386H102.864L101.777 61.9996ZM101.948 60.5792H103.808V60.9698H101.948V60.5792Z" fill="white"/>
<path d="M98.7468 58.3633V61.9996H98.3207L96.3391 59.1445H96.3036V61.9996H95.8633V58.3633H96.2894L98.2781 61.2255H98.3136V58.3633H98.7468Z" fill="white"/>
<path d="M89.5741 58.3633V61.9996H89.1338V58.3633H89.5741Z" fill="white"/>
<path d="M84.3213 61.9996V58.3633H84.7616V61.609H86.452V61.9996H84.3213Z" fill="white"/>
<path d="M79.0915 61.9996H78.6299L79.9651 58.3633H80.4197L81.7549 61.9996H81.2932L80.2066 58.9386H80.1782L79.0915 61.9996ZM79.262 60.5792H81.1228V60.9698H79.262V60.5792Z" fill="white"/>
<path d="M73.9604 58.7539V58.3633H76.6877V58.7539H75.5443V61.9996H75.1039V58.7539H73.9604Z" fill="white"/>
<path d="M69.3542 61.9996H68.8926L70.2278 58.3633H70.6824L72.0176 61.9996H71.5559L70.4693 58.9386H70.4409L69.3542 61.9996ZM69.5247 60.5792H71.3855V60.9698H69.5247V60.5792Z" fill="white"/>
<path d="M66.324 58.3633V61.9996H65.8978L63.9163 59.1445H63.8808V61.9996H63.4404V58.3633H63.8666L65.8552 61.2255H65.8907V58.3633H66.324Z" fill="white"/>
</svg>
